<svg xmlns="http://www.w3.org/2000/svg" width="600" height="420"><rect width="600" height="420" fill="white"/><rect x="10" y="10" width="580" height="400" fill="none" stroke="black"/><text x="35" y="60" font-size="26">DMD · USPS-like test label</text><text x="35" y="105" font-size="20">DEMO ONLY · NOT VALID FOR SHIPPING</text><path d="M40 170v140m12-140v140m10-140v140m18-140v140m7-140v140m25-140v140m12-140v140m18-140v140m9-140v140m20-140v140m16-140v140m12-140v140m22-140v140m8-140v140m18-140v140m11-140v140m20-140v140m15-140v140m10-140v140" stroke="black" stroke-width="5"/><text x="35" y="365" font-size="20">See the Order for its tracking number</text></svg>